<svg width="809" height="787" viewBox="0 0 809 787" fill="none" xmlns="http://www.w3.org/2000/svg">
<path d="M121.527 177.716C19.5117 311.183 19.5117 473.775 121.527 607.242C130.782 618.092 132.142 633.543 123.462 642.171C114.782 650.824 98.0754 648.393 87.5915 636.079C-28.3325 486.193 -28.3587 298.817 87.5915 148.879C98.0754 136.565 114.782 134.133 123.462 142.787C132.142 151.415 130.782 166.84 121.527 177.716Z" stroke="#302D3C" stroke-width="0.5" stroke-miterlimit="10"/>
<path d="M512.256 741.781C673.122 693.388 768.366 561.62 763.895 393.695C762.771 379.472 770.719 366.165 782.798 364.256C794.902 362.348 807.007 374.086 808.288 390.218C814.406 579.607 704.678 731.48 522.844 785.05C507.132 788.893 492.177 781.076 490.19 768.971C488.255 756.866 498.399 745.153 512.256 741.781Z" stroke="#302D3C" stroke-width="0.5" stroke-miterlimit="10"/>
</svg>
